<svg xmlns="http://www.w3.org/2000/svg" xmlns:xlink="http://www.w3.org/1999/xlink" width="1500" zoomAndPan="magnify" viewBox="0 0 1125 374.999991" height="500" preserveAspectRatio="xMidYMid meet" version="1.0"><defs><g/><clipPath id="43daba9720"><path d="M 58 291 L 347 291 L 347 372.769531 L 58 372.769531 Z M 58 291 " clip-rule="nonzero"/></clipPath><clipPath id="d85a0d3531"><path d="M 1.574219 76 L 40 76 L 40 265 L 1.574219 265 Z M 1.574219 76 " clip-rule="nonzero"/></clipPath><clipPath id="d0a3184770"><path d="M 245 182 L 373.574219 182 L 373.574219 353 L 245 353 Z M 245 182 " clip-rule="nonzero"/></clipPath><clipPath id="46f7525643"><path d="M 15 2.269531 L 189 2.269531 L 189 328 L 15 328 Z M 15 2.269531 " clip-rule="nonzero"/></clipPath></defs><g clip-path="url(#43daba9720)"><path fill="#ffffff" d="M 334.457031 295.671875 C 334.480469 295.648438 334.515625 295.597656 334.5625 295.535156 C 334.515625 295.59375 334.480469 295.640625 334.457031 295.671875 Z M 335.992188 302.726562 C 333.582031 300.890625 333.113281 297.433594 334.957031 295.019531 C 334.863281 295.140625 334.777344 295.253906 334.695312 295.359375 C 334.769531 295.265625 334.851562 295.160156 334.957031 295.019531 C 335.273438 294.601562 335.425781 294.40625 335.46875 294.347656 C 335.410156 294.429688 335.183594 294.722656 334.957031 295.019531 C 336.792969 292.613281 340.246094 292.144531 342.660156 293.984375 C 345.070312 295.824219 345.539062 299.277344 343.699219 301.691406 C 341.863281 304.101562 338.40625 304.566406 335.992188 302.726562 Z M 60.640625 315.960938 C 58.242188 318.511719 58.367188 322.523438 60.917969 324.921875 C 62.765625 326.65625 65.378906 327.066406 67.589844 326.195312 C 102.214844 356.234375 146.191406 372.714844 192.109375 372.714844 C 221.769531 372.714844 250.203125 366.050781 276.621094 352.898438 C 299.71875 341.40625 320.578125 325.007812 337.332031 305.25 C 340.097656 306.046875 343.195312 305.132812 345.039062 302.710938 C 347.445312 299.5625 346.835938 295.042969 343.683594 292.644531 C 340.53125 290.242188 336.015625 290.847656 333.613281 294 C 331.863281 296.292969 331.71875 299.304688 332.976562 301.703125 C 297.71875 343.347656 246.769531 367.09375 192.109375 367.09375 C 147.589844 367.09375 104.953125 351.128906 71.363281 322.023438 C 71.980469 319.816406 71.386719 317.351562 69.605469 315.679688 C 67.050781 313.28125 63.035156 313.40625 60.640625 315.960938 " fill-opacity="1" fill-rule="nonzero"/></g><g clip-path="url(#d85a0d3531)"><path fill="#ffffff" d="M 25.574219 255.613281 C 25.5625 255.585938 25.539062 255.535156 25.507812 255.464844 C 25.542969 255.542969 25.5625 255.589844 25.574219 255.613281 Z M 25.011719 254.359375 C 24.855469 254.011719 24.785156 253.855469 25.011719 254.359375 Z M 17.957031 252.070312 C 20.722656 250.828125 23.980469 252.066406 25.222656 254.835938 C 26.464844 257.601562 25.226562 260.859375 22.460938 262.101562 C 19.695312 263.34375 16.433594 262.105469 15.191406 259.335938 C 13.949219 256.570312 15.1875 253.3125 17.957031 252.070312 Z M 38.871094 85.960938 C 40.789062 83.03125 39.972656 79.097656 37.039062 77.179688 C 34.109375 75.261719 30.179688 76.085938 28.261719 79.011719 C 26.859375 81.152344 26.925781 83.828125 28.203125 85.859375 C 10.929688 115.074219 1.824219 148.328125 1.824219 182.433594 C 1.824219 206.527344 6.277344 229.921875 15.042969 252.097656 C 13.066406 254.152344 12.417969 257.277344 13.652344 260.03125 C 15.277344 263.644531 19.539062 265.261719 23.152344 263.640625 C 26.765625 262.015625 28.386719 257.753906 26.761719 254.144531 C 25.570312 251.488281 22.957031 249.917969 20.222656 249.910156 C 11.753906 228.429688 7.445312 205.765625 7.445312 182.433594 C 7.445312 149.371094 16.265625 117.128906 32.996094 88.804688 C 35.253906 89.003906 37.542969 87.988281 38.871094 85.960938 " fill-opacity="1" fill-rule="nonzero"/></g><path fill="#ffffff" d="M 270.625 33.390625 C 270.6875 33.421875 270.699219 33.429688 270.625 33.390625 Z M 270.59375 33.378906 C 270.550781 33.355469 270.492188 33.328125 270.417969 33.285156 C 270.488281 33.324219 270.550781 33.355469 270.59375 33.378906 Z M 274.804688 23.1875 C 277.519531 24.542969 278.625 27.851562 277.269531 30.5625 C 275.914062 33.273438 272.605469 34.382812 269.890625 33.027344 C 267.179688 31.671875 266.074219 28.363281 267.433594 25.652344 C 268.785156 22.9375 272.089844 21.835938 274.804688 23.1875 Z M 334.132812 71.460938 C 332.585938 69.414062 330.03125 68.578125 327.683594 69.109375 C 314.171875 52.992188 297.699219 39.226562 279.492188 28.808594 C 279.769531 25.933594 278.292969 23.042969 275.558594 21.679688 C 272.011719 19.910156 267.6875 21.355469 265.921875 24.898438 C 264.152344 28.445312 265.597656 32.765625 269.140625 34.539062 C 271.707031 35.816406 274.675781 35.40625 276.796875 33.742188 C 294.363281 43.804688 310.265625 57.097656 323.316406 72.644531 C 322.375 74.703125 322.5625 77.191406 324.023438 79.121094 C 326.140625 81.910156 330.121094 82.457031 332.910156 80.34375 C 335.703125 78.230469 336.25 74.25 334.132812 71.460938 " fill-opacity="1" fill-rule="nonzero"/><g clip-path="url(#d0a3184770)"><path fill="#ffffff" d="M 360.433594 190.148438 C 360.429688 190.226562 360.429688 190.285156 360.429688 190.324219 C 360.429688 190.289062 360.429688 190.230469 360.433594 190.148438 Z M 360.460938 188.644531 C 360.460938 188.628906 360.460938 188.628906 360.460938 188.644531 Z M 366.054688 184.121094 C 369.085938 184.183594 371.5 186.699219 371.4375 189.730469 C 371.375 192.757812 368.859375 195.175781 365.828125 195.113281 C 362.796875 195.054688 360.382812 192.535156 360.445312 189.507812 C 360.441406 189.738281 360.4375 189.964844 360.433594 190.132812 C 360.433594 189.992188 360.4375 189.789062 360.445312 189.503906 C 360.453125 189.054688 360.460938 188.8125 360.460938 188.699219 C 360.457031 188.84375 360.453125 189.171875 360.445312 189.503906 C 360.507812 186.472656 363.023438 184.058594 366.054688 184.121094 Z M 373.125 189.765625 C 373.207031 185.804688 370.050781 182.511719 366.089844 182.433594 C 362.125 182.351562 358.835938 185.507812 358.757812 189.472656 C 358.699219 192.332031 360.335938 194.835938 362.738281 196.039062 C 357.640625 260.984375 316.488281 316.949219 255.851562 341.292969 C 254.191406 339.757812 251.757812 339.164062 249.46875 339.953125 C 246.164062 341.09375 244.40625 344.707031 245.550781 348.019531 C 246.691406 351.328125 250.304688 353.085938 253.617188 351.9375 C 256.039062 351.105469 257.621094 348.945312 257.855469 346.546875 C 288.195312 334.363281 314.476562 314.082031 334.136719 287.597656 C 354.011719 260.832031 365.765625 229.425781 368.351562 196.375 C 371.078125 195.402344 373.0625 192.824219 373.125 189.765625 C 373.125 189.769531 373.125 189.777344 373.125 189.78125 C 373.125 189.777344 373.125 189.769531 373.125 189.765625 C 373.128906 189.648438 373.128906 189.546875 373.132812 189.449219 C 373.128906 189.550781 373.128906 189.65625 373.125 189.765625 " fill-opacity="1" fill-rule="nonzero"/></g><g clip-path="url(#46f7525643)"><path fill="#ffffff" d="M 88.921875 315.535156 C 88.90625 315.515625 88.902344 315.515625 88.921875 315.535156 Z M 81.917969 317.191406 C 83.722656 314.753906 87.171875 314.242188 89.609375 316.039062 C 89.332031 315.839844 89.058594 315.632812 88.953125 315.554688 C 89.035156 315.617188 89.234375 315.761719 89.609375 316.039062 C 90.046875 316.363281 90.246094 316.511719 90.296875 316.550781 C 90.226562 316.5 89.921875 316.269531 89.609375 316.042969 C 92.046875 317.847656 92.5625 321.292969 90.761719 323.730469 C 88.957031 326.171875 85.507812 326.6875 83.070312 324.882812 C 80.632812 323.078125 80.117188 319.628906 81.917969 317.191406 Z M 176.339844 6.351562 C 133.546875 10.148438 93.839844 29.316406 63.976562 60.742188 C 32.597656 93.765625 15.316406 136.980469 15.316406 182.433594 C 15.316406 210.40625 21.691406 237.183594 34.265625 262.015625 C 45.195312 283.613281 60.726562 303.03125 79.421875 318.550781 C 78.65625 321.335938 79.613281 324.421875 82.066406 326.238281 C 85.25 328.59375 89.761719 327.921875 92.117188 324.734375 C 94.472656 321.550781 93.800781 317.042969 90.613281 314.6875 C 88.300781 312.972656 85.292969 312.871094 82.917969 314.152344 C 43.441406 281.449219 20.941406 233.828125 20.941406 182.433594 C 20.941406 93.546875 88.890625 19.796875 176.714844 11.964844 C 177.863281 13.9375 180.042969 15.222656 182.480469 15.113281 C 185.980469 14.953125 188.6875 11.988281 188.53125 8.488281 C 188.371094 4.992188 185.40625 2.28125 181.90625 2.441406 C 179.371094 2.554688 177.253906 4.152344 176.339844 6.351562 " fill-opacity="1" fill-rule="nonzero"/></g><path fill="#ffffff" d="M 338.488281 233.390625 C 338.472656 233.445312 338.457031 233.496094 338.441406 233.542969 C 338.453125 233.496094 338.472656 233.445312 338.488281 233.390625 Z M 338.425781 233.574219 C 338.410156 233.636719 338.390625 233.691406 338.375 233.742188 C 338.390625 233.695312 338.410156 233.640625 338.425781 233.574219 Z M 338.332031 233.867188 C 338.328125 233.882812 338.328125 233.882812 338.332031 233.867188 Z M 338.757812 232.554688 C 338.761719 232.542969 338.765625 232.535156 338.769531 232.523438 C 338.765625 232.535156 338.761719 232.542969 338.757812 232.554688 Z M 338.820312 232.355469 C 338.84375 232.289062 338.859375 232.246094 338.863281 232.226562 C 338.855469 232.246094 338.84375 232.289062 338.820312 232.355469 Z M 345.519531 229.503906 C 348.40625 230.433594 349.996094 233.539062 349.0625 236.421875 C 348.132812 239.3125 345.03125 240.902344 342.144531 239.96875 C 339.257812 239.039062 337.667969 235.933594 338.597656 233.050781 C 338.640625 232.914062 338.679688 232.804688 338.707031 232.707031 C 338.671875 232.816406 338.636719 232.929688 338.597656 233.050781 C 339.527344 230.160156 342.632812 228.574219 345.519531 229.503906 Z M 350.816406 236.5 C 350.765625 236.636719 350.71875 236.789062 350.667969 236.941406 C 351.886719 233.171875 349.804688 229.117188 346.035156 227.898438 C 342.265625 226.683594 338.210938 228.761719 336.992188 232.53125 C 336.113281 235.253906 336.960938 238.121094 338.914062 239.964844 C 315.296875 300.144531 257.152344 340.109375 192.109375 340.109375 C 138.648438 340.109375 88.351562 312.445312 59.425781 267.527344 C 60.621094 265.613281 60.753906 263.117188 59.558594 261.023438 C 57.820312 257.980469 53.949219 256.921875 50.90625 258.65625 C 47.863281 260.390625 46.804688 264.265625 48.542969 267.304688 C 49.8125 269.535156 52.234375 270.695312 54.632812 270.472656 C 68.617188 292.230469 87.660156 310.5 110.019531 323.554688 C 134.859375 338.0625 163.246094 345.730469 192.109375 345.730469 C 259.515625 345.730469 319.761719 304.289062 344.195312 241.902344 C 347.085938 241.753906 349.726562 239.855469 350.667969 236.941406 C 350.542969 237.332031 350.417969 237.71875 350.355469 237.910156 C 350.402344 237.761719 350.5 237.464844 350.667969 236.941406 C 350.722656 236.765625 350.773438 236.625 350.816406 236.5 " fill-opacity="1" fill-rule="nonzero"/><path fill="#ffffff" d="M 31.679688 184.683594 C 28.644531 184.671875 26.191406 182.191406 26.207031 179.160156 C 26.222656 176.125 28.699219 173.675781 31.730469 173.691406 C 34.765625 173.703125 37.21875 176.183594 37.203125 179.214844 C 37.207031 178.457031 37.210938 177.699219 37.203125 179.214844 C 37.203125 179.671875 37.199219 179.921875 37.199219 180.027344 C 37.199219 179.890625 37.203125 179.554688 37.203125 179.214844 C 37.1875 182.25 34.710938 184.699219 31.679688 184.683594 Z M 192.109375 21.949219 C 192.019531 18.445312 189.109375 15.675781 185.609375 15.769531 C 183.058594 15.832031 180.902344 17.398438 179.953125 19.59375 C 140.46875 22.515625 103.625 39.585938 75.640625 68.078125 C 47.851562 96.378906 31.488281 133.226562 29.121094 172.492188 C 26.445312 173.527344 24.535156 176.117188 24.519531 179.152344 C 24.5 183.113281 27.710938 186.355469 31.671875 186.375 C 35.632812 186.394531 38.871094 183.183594 38.890625 179.21875 C 38.90625 176.332031 37.199219 173.835938 34.738281 172.683594 C 39.535156 94.195312 101.742188 31.058594 180.242188 25.210938 C 181.355469 27.195312 183.5 28.507812 185.929688 28.449219 C 189.433594 28.355469 192.195312 25.449219 192.109375 21.949219 " fill-opacity="1" fill-rule="nonzero"/><path fill="#ffffff" d="M 80.125 96.070312 C 80.144531 96.042969 80.144531 96.042969 80.125 96.070312 Z M 80.078125 96.132812 C 80.007812 96.230469 79.878906 96.402344 79.667969 96.691406 C 79.835938 96.464844 79.992188 96.25 80.078125 96.132812 Z M 79.578125 96.8125 C 79.441406 97 79.335938 97.144531 79.265625 97.246094 C 79.351562 97.128906 79.464844 96.972656 79.578125 96.8125 Z M 79.234375 97.285156 C 79.203125 97.328125 79.175781 97.363281 79.15625 97.390625 C 79.179688 97.359375 79.203125 97.324219 79.234375 97.285156 Z M 79.128906 97.433594 C 79.097656 97.46875 79.101562 97.464844 79.128906 97.433594 Z M 78.4375 89.070312 C 80.882812 90.859375 81.414062 94.304688 79.625 96.753906 C 77.832031 99.199219 74.382812 99.730469 71.9375 97.9375 C 69.492188 96.144531 68.960938 92.699219 70.753906 90.253906 C 72.546875 87.804688 75.992188 87.277344 78.4375 89.070312 Z M 294.351562 73.050781 C 266.484375 46.945312 230.417969 32.628906 192.109375 32.628906 C 168.300781 32.628906 145.523438 38.078125 124.40625 48.820312 C 106.355469 58 90.125 70.984375 77.085938 86.582031 C 74.296875 85.820312 71.199219 86.789062 69.394531 89.257812 C 67.050781 92.453125 67.746094 96.957031 70.941406 99.300781 C 74.136719 101.640625 78.640625 100.945312 80.984375 97.753906 C 82.679688 95.4375 82.777344 92.4375 81.488281 90.070312 C 109.027344 57.054688 148.957031 38.253906 192.109375 38.253906 C 228.933594 38.253906 263.609375 51.996094 290.421875 77.070312 C 289.722656 79.21875 290.199219 81.671875 291.867188 83.414062 C 294.289062 85.945312 298.304688 86.035156 300.832031 83.613281 C 303.363281 81.191406 303.453125 77.175781 301.03125 74.644531 C 299.253906 72.792969 296.625 72.253906 294.351562 73.050781 " fill-opacity="1" fill-rule="nonzero"/><path fill="#ffffff" d="M 190.316406 310.425781 C 190.332031 310.425781 190.359375 310.425781 190.410156 310.425781 C 190.367188 310.425781 190.332031 310.425781 190.316406 310.425781 Z M 190.472656 310.425781 C 190.558594 310.421875 190.691406 310.421875 190.863281 310.417969 C 190.710938 310.421875 190.570312 310.421875 190.472656 310.425781 Z M 191.847656 310.398438 C 191.886719 310.398438 191.914062 310.398438 191.941406 310.398438 C 191.914062 310.398438 191.886719 310.398438 191.847656 310.398438 Z M 192.023438 310.398438 C 192.050781 310.394531 192.050781 310.394531 192.023438 310.398438 Z M 185.769531 316.007812 C 185.71875 312.972656 188.140625 310.464844 191.167969 310.410156 C 191.164062 310.410156 191.160156 310.410156 191.15625 310.410156 C 191.160156 310.410156 191.164062 310.410156 191.167969 310.410156 C 191.304688 310.410156 191.410156 310.40625 191.507812 310.40625 C 191.402344 310.40625 191.285156 310.410156 191.167969 310.410156 C 194.203125 310.359375 196.710938 312.78125 196.765625 315.8125 C 196.816406 318.84375 194.394531 321.351562 191.367188 321.410156 C 188.332031 321.460938 185.824219 319.039062 185.769531 316.007812 Z M 191.394531 323.09375 C 195.359375 323.023438 198.523438 319.742188 198.453125 315.785156 C 198.378906 311.824219 195.101562 308.65625 191.140625 308.726562 C 188.296875 308.777344 185.867188 310.484375 184.75 312.910156 C 116.136719 309.074219 61.421875 251.925781 61.421875 182.433594 C 61.421875 134.402344 87.175781 91.089844 129.023438 68.007812 C 130.839844 69.328125 133.300781 69.644531 135.476562 68.617188 C 138.640625 67.121094 139.996094 63.339844 138.5 60.171875 C 137.003906 57.007812 133.222656 55.65625 130.054688 57.152344 C 127.722656 58.253906 126.378906 60.597656 126.429688 63.019531 C 106.324219 74.117188 89.292969 90.121094 76.929688 109.605469 C 63.105469 131.386719 55.800781 156.570312 55.800781 182.433594 C 55.800781 254.96875 112.953125 314.613281 184.589844 318.539062 C 185.660156 321.246094 188.316406 323.148438 191.394531 323.09375 " fill-opacity="1" fill-rule="nonzero"/><path fill="#ffffff" d="M 87.390625 228.824219 C 87.398438 228.832031 87.402344 228.84375 87.40625 228.855469 C 87.398438 228.84375 87.398438 228.835938 87.390625 228.824219 Z M 87.84375 229.742188 C 87.871094 229.796875 87.894531 229.847656 87.917969 229.894531 C 87.894531 229.84375 87.867188 229.792969 87.84375 229.742188 Z M 88.0625 230.191406 C 88.101562 230.273438 88.125 230.316406 88.136719 230.34375 C 88.125 230.316406 88.097656 230.261719 88.0625 230.191406 Z M 80.402344 227.066406 C 83.121094 225.730469 86.421875 226.855469 87.761719 229.574219 C 89.097656 232.296875 87.972656 235.59375 85.253906 236.933594 C 82.53125 238.273438 79.230469 237.148438 77.894531 234.429688 C 76.554688 231.707031 77.679688 228.402344 80.402344 227.066406 Z M 69.292969 182.433594 C 69.292969 197.863281 72.109375 212.824219 77.667969 227.011719 C 75.625 229.132812 75.007812 232.382812 76.378906 235.171875 C 76.195312 234.796875 76.011719 234.421875 75.925781 234.246094 C 75.992188 234.386719 76.132812 234.667969 76.378906 235.171875 C 76.625 235.671875 76.765625 235.953125 76.832031 236.089844 C 76.746094 235.917969 76.5625 235.542969 76.378906 235.171875 C 78.128906 238.726562 82.445312 240.199219 85.996094 238.449219 C 89.550781 236.699219 91.023438 232.382812 89.273438 228.832031 C 88.03125 226.304688 85.492188 224.839844 82.851562 224.824219 C 77.585938 211.332031 74.917969 197.105469 74.917969 182.433594 C 74.917969 117.8125 127.488281 65.242188 192.109375 65.242188 C 200.480469 65.242188 208.800781 66.144531 216.921875 67.898438 C 217.414062 70.074219 219.035156 71.921875 221.324219 72.59375 C 224.683594 73.582031 228.210938 71.652344 229.195312 68.292969 C 230.175781 64.929688 228.25 61.40625 224.890625 60.421875 C 222.402344 59.695312 219.835938 60.5625 218.265625 62.421875 C 209.703125 60.5625 200.933594 59.617188 192.109375 59.617188 C 124.386719 59.617188 69.292969 114.710938 69.292969 182.433594 " fill-opacity="1" fill-rule="nonzero"/><path fill="#ffffff" d="M 263.761719 253.546875 C 263.710938 253.605469 263.660156 253.65625 263.625 253.699219 C 263.660156 253.660156 263.710938 253.609375 263.761719 253.546875 Z M 264.332031 252.929688 C 264.382812 252.871094 264.433594 252.820312 264.472656 252.777344 C 264.429688 252.824219 264.382812 252.875 264.332031 252.929688 Z M 264.609375 252.632812 C 264.757812 252.46875 264.730469 252.5 264.609375 252.632812 Z M 271.886719 252.851562 C 274.113281 254.910156 274.25 258.394531 272.195312 260.621094 C 270.136719 262.851562 266.652344 262.992188 264.425781 260.933594 C 262.199219 258.878906 262.058594 255.394531 264.117188 253.164062 C 264.09375 253.191406 264.070312 253.210938 264.042969 253.242188 C 264.070312 253.210938 264.09375 253.191406 264.117188 253.164062 C 264.15625 253.117188 264.191406 253.082031 264.226562 253.042969 C 264.191406 253.082031 264.15625 253.121094 264.117188 253.160156 C 266.175781 250.933594 269.660156 250.796875 271.886719 252.851562 Z M 273.433594 261.769531 C 276.121094 258.859375 275.941406 254.304688 273.027344 251.613281 C 270.121094 248.925781 265.5625 249.109375 262.878906 252.019531 C 260.964844 254.089844 260.511719 256.996094 261.457031 259.464844 C 242.375 276.707031 218.007812 286.132812 192.109375 286.132812 C 134.929688 286.132812 88.410156 239.613281 88.410156 182.433594 C 88.410156 129.4375 128.332031 85.28125 180.34375 79.402344 C 181.492188 81.296875 183.601562 82.539062 185.976562 82.464844 C 189.476562 82.351562 192.21875 79.425781 192.109375 75.921875 C 191.996094 72.421875 189.066406 69.675781 185.5625 69.789062 C 182.960938 69.875 180.773438 71.519531 179.871094 73.796875 C 124.960938 79.914062 82.785156 126.503906 82.785156 182.433594 C 82.785156 242.714844 131.828125 291.753906 192.109375 291.753906 C 219.480469 291.753906 245.230469 281.769531 265.367188 263.507812 C 268.078125 264.644531 271.328125 264.050781 273.433594 261.769531 " fill-opacity="1" fill-rule="nonzero"/><path fill="#ffffff" d="M 279.386719 188.550781 C 279.386719 188.566406 279.386719 188.59375 279.386719 188.625 C 279.386719 188.589844 279.386719 188.566406 279.386719 188.550781 Z M 279.382812 188.742188 C 279.375 188.878906 279.367188 189.058594 279.363281 189.253906 C 279.371094 189.023438 279.375 188.859375 279.382812 188.742188 Z M 279.328125 190.117188 C 279.328125 190.132812 279.328125 190.144531 279.328125 190.15625 C 279.328125 190.144531 279.328125 190.128906 279.328125 190.117188 Z M 279.324219 190.257812 C 279.324219 190.277344 279.324219 190.277344 279.324219 190.257812 Z M 285.058594 184.121094 C 288.089844 184.234375 290.460938 186.792969 290.34375 189.824219 C 290.226562 192.855469 287.671875 195.222656 284.640625 195.109375 C 281.609375 194.988281 279.238281 192.429688 279.355469 189.398438 C 279.472656 186.375 282.03125 184.003906 285.058594 184.121094 Z M 292.03125 189.886719 C 292.179688 185.929688 289.082031 182.582031 285.125 182.433594 C 281.167969 182.277344 277.824219 185.378906 277.667969 189.335938 C 277.5625 192.105469 279.050781 194.570312 281.304688 195.855469 C 277.191406 223.132812 260.609375 247.257812 236.492188 260.941406 C 234.714844 259.65625 232.324219 259.324219 230.179688 260.285156 C 226.984375 261.71875 225.550781 265.46875 226.984375 268.664062 C 228.414062 271.863281 232.167969 273.296875 235.363281 271.863281 C 237.769531 270.785156 239.171875 268.394531 239.113281 265.921875 C 264.867188 251.363281 282.566406 225.613281 286.894531 196.492188 C 289.757812 195.636719 291.90625 193.039062 292.03125 189.886719 " fill-opacity="1" fill-rule="nonzero"/><path fill="#ffffff" d="M 162.117188 264.699219 C 162.113281 264.699219 162.109375 264.695312 162.105469 264.695312 C 162.105469 264.695312 162.113281 264.699219 162.117188 264.699219 Z M 159.675781 275.453125 C 156.777344 274.554688 155.152344 271.46875 156.046875 268.574219 C 156.945312 265.679688 160.027344 264.050781 162.925781 264.945312 C 162.617188 264.851562 162.3125 264.757812 162.171875 264.714844 C 162.28125 264.75 162.511719 264.820312 162.925781 264.945312 C 163.375 265.089844 163.617188 265.160156 163.710938 265.191406 C 163.589844 265.152344 163.261719 265.054688 162.929688 264.949219 C 165.824219 265.84375 167.449219 268.929688 166.554688 271.828125 C 165.65625 274.722656 162.570312 276.347656 159.675781 275.453125 Z M 103.132812 197.277344 C 104.957031 196.050781 106.09375 193.914062 105.925781 191.5625 C 105.675781 188.070312 102.640625 185.445312 99.148438 185.691406 C 95.65625 185.941406 93.023438 188.976562 93.273438 192.46875 C 93.460938 195.09375 95.21875 197.230469 97.5625 198.023438 C 102.847656 230.074219 124.289062 257.484375 154.125 270.410156 C 154.214844 273.394531 156.167969 276.136719 159.175781 277.0625 C 158.777344 276.941406 158.382812 276.820312 158.195312 276.757812 C 158.34375 276.808594 158.644531 276.898438 159.175781 277.0625 C 159.753906 277.242188 160.0625 277.339844 160.191406 277.382812 C 160.027344 277.328125 159.601562 277.195312 159.175781 277.0625 C 162.960938 278.234375 166.992188 276.109375 168.164062 272.324219 C 169.335938 268.542969 167.210938 264.507812 163.425781 263.335938 C 160.773438 262.515625 158.007812 263.316406 156.179688 265.167969 C 128.234375 252.996094 108.144531 227.308594 103.132812 197.277344 " fill-opacity="1" fill-rule="nonzero"/><g fill="#ffffff" fill-opacity="1"><g transform="translate(424.56, 227.033083)"><g><path d="M 124.808594 -83.765625 L 113.585938 -83.765625 C 112.246094 -83.765625 111.074219 -82.59375 111.074219 -81.253906 L 111.074219 -46.742188 C 111.074219 -45.566406 110.738281 -44.898438 109.898438 -43.894531 L 86.949219 -17.925781 L 85.941406 -17.089844 C 85.441406 -16.753906 84.9375 -16.585938 84.265625 -16.585938 L 48.082031 -16.585938 C 47.242188 -16.585938 46.742188 -16.753906 46.40625 -17.089844 L 45.402344 -17.925781 L 22.449219 -43.894531 C 21.613281 -44.898438 21.277344 -45.566406 21.277344 -46.742188 L 21.277344 -81.253906 C 21.277344 -82.59375 20.105469 -83.765625 18.761719 -83.765625 L 7.539062 -83.765625 C 6.199219 -83.765625 5.027344 -82.59375 5.027344 -81.253906 L 5.027344 -41.546875 C 5.027344 -39.871094 5.695312 -38.53125 6.867188 -37.191406 L 38.363281 -2.011719 C 39.703125 -0.671875 41.210938 0 43.390625 0 L 88.957031 0 C 91.136719 0 92.644531 -0.671875 93.984375 -2.011719 L 125.480469 -37.191406 C 126.652344 -38.53125 127.324219 -39.871094 127.324219 -41.546875 L 127.324219 -81.253906 C 127.324219 -82.59375 126.148438 -83.765625 124.808594 -83.765625 Z M 124.808594 -83.765625 "/></g></g></g><g fill="#ffffff" fill-opacity="1"><g transform="translate(556.908677, 227.033083)"><g><path d="M 23.789062 -54.78125 L 29.148438 -59.808594 C 30.15625 -60.8125 30.824219 -61.148438 31.664062 -61.148438 L 124.808594 -61.148438 C 126.148438 -61.148438 127.324219 -62.320312 127.324219 -63.660156 L 127.324219 -75.222656 C 127.324219 -76.5625 126.148438 -77.734375 124.808594 -77.734375 L 26.972656 -77.734375 C 24.960938 -77.734375 23.621094 -77.230469 22.113281 -75.722656 L 7.035156 -60.644531 C 6.03125 -59.640625 5.027344 -57.964844 5.027344 -56.289062 L 5.027344 -21.613281 C 5.027344 -19.433594 5.695312 -17.925781 7.035156 -16.585938 L 22.113281 -1.84375 C 23.285156 -0.671875 24.792969 0 26.46875 0 L 124.808594 0 C 126.148438 0 127.324219 -1.171875 127.324219 -2.511719 L 127.324219 -13.738281 C 127.324219 -15.078125 126.148438 -16.25 124.808594 -16.25 L 31.832031 -16.25 C 30.65625 -16.25 29.820312 -16.585938 28.984375 -17.421875 L 23.957031 -22.785156 L 23.117188 -23.789062 C 22.785156 -24.292969 22.617188 -24.792969 22.617188 -25.464844 L 22.617188 -27.976562 L 116.601562 -27.976562 C 117.941406 -27.976562 119.113281 -29.148438 119.113281 -30.492188 L 119.113281 -42.050781 C 119.113281 -43.390625 117.941406 -44.5625 116.601562 -44.5625 L 22.617188 -44.5625 L 22.617188 -51.933594 C 22.617188 -53.105469 22.953125 -53.945312 23.789062 -54.78125 Z M 23.789062 -54.78125 "/></g></g></g><g fill="#ffffff" fill-opacity="1"><g transform="translate(689.257355, 227.033083)"><g><path d="M 124.808594 -77.734375 L 113.585938 -77.734375 C 112.246094 -77.734375 111.074219 -76.5625 111.074219 -75.222656 L 111.074219 -46.742188 C 111.074219 -45.566406 110.738281 -44.898438 109.898438 -43.894531 L 86.949219 -17.925781 L 85.941406 -17.089844 C 85.441406 -16.753906 84.9375 -16.585938 84.265625 -16.585938 L 48.082031 -16.585938 C 47.242188 -16.585938 46.742188 -16.753906 46.40625 -17.089844 L 45.402344 -17.925781 L 22.449219 -43.894531 C 21.613281 -44.898438 21.277344 -45.566406 21.277344 -46.742188 L 21.277344 -75.222656 C 21.277344 -76.5625 20.105469 -77.734375 18.761719 -77.734375 L 7.539062 -77.734375 C 6.199219 -77.734375 5.027344 -76.5625 5.027344 -75.222656 L 5.027344 -41.546875 C 5.027344 -39.871094 5.695312 -38.53125 6.867188 -37.191406 L 38.363281 -2.011719 C 39.703125 -0.671875 41.210938 0 43.390625 0 L 88.957031 0 C 91.136719 0 92.644531 -0.671875 93.984375 -2.011719 L 125.480469 -37.191406 C 126.652344 -38.53125 127.324219 -39.871094 127.324219 -41.546875 L 127.324219 -75.222656 C 127.324219 -76.5625 126.148438 -77.734375 124.808594 -77.734375 Z M 124.808594 -77.734375 "/></g></g></g><g fill="#ffffff" fill-opacity="1"><g transform="translate(821.606015, 227.033083)"><g><path d="M 7.539062 0 L 20.105469 0 C 21.445312 0 22.617188 -1.171875 22.617188 -2.511719 L 22.617188 -75.222656 C 22.617188 -76.5625 21.445312 -77.734375 20.105469 -77.734375 L 7.539062 -77.734375 C 6.199219 -77.734375 5.027344 -76.5625 5.027344 -75.222656 L 5.027344 -2.511719 C 5.027344 -1.171875 6.199219 0 7.539062 0 Z M 7.539062 0 "/></g></g></g><g fill="#ffffff" fill-opacity="1"><g transform="translate(849.248484, 227.033083)"><g><path d="M 125.480469 -60.644531 L 110.738281 -75.722656 C 109.398438 -77.0625 107.890625 -77.734375 105.710938 -77.734375 L 26.636719 -77.734375 C 24.460938 -77.734375 22.953125 -77.0625 21.613281 -75.722656 L 6.867188 -60.644531 C 5.695312 -59.472656 5.027344 -57.964844 5.027344 -56.289062 L 5.027344 -2.511719 C 5.027344 -1.171875 6.199219 0 7.539062 0 L 18.761719 0 C 20.105469 0 21.277344 -1.171875 21.277344 -2.511719 L 21.277344 -19.097656 L 111.074219 -19.097656 L 111.074219 -2.511719 C 111.074219 -1.171875 112.246094 0 113.585938 0 L 124.808594 0 C 126.148438 0 127.324219 -1.171875 127.324219 -2.511719 L 127.324219 -56.289062 C 127.324219 -57.964844 126.652344 -59.472656 125.480469 -60.644531 Z M 21.277344 -33.671875 L 21.277344 -51.933594 C 21.277344 -53.105469 21.613281 -53.945312 22.449219 -54.78125 L 27.808594 -59.808594 L 28.816406 -60.644531 C 29.148438 -60.980469 29.652344 -61.148438 30.492188 -61.148438 L 101.859375 -61.148438 C 102.527344 -61.148438 103.03125 -60.980469 103.535156 -60.644531 L 104.539062 -59.808594 L 109.898438 -54.78125 C 110.738281 -53.945312 111.074219 -53.105469 111.074219 -51.933594 L 111.074219 -33.671875 Z M 21.277344 -33.671875 "/></g></g></g><g fill="#ffffff" fill-opacity="1"><g transform="translate(981.597181, 227.033083)"><g><path d="M 125.3125 -61.148438 L 110.234375 -75.890625 C 109.0625 -77.0625 107.554688 -77.734375 105.878906 -77.734375 L 7.539062 -77.734375 C 6.199219 -77.734375 5.027344 -76.5625 5.027344 -75.222656 L 5.027344 -2.511719 C 5.027344 -1.171875 6.199219 0 7.539062 0 L 105.375 0 C 107.386719 0 108.726562 -0.503906 110.234375 -2.011719 L 125.3125 -17.089844 C 126.316406 -18.09375 127.324219 -19.769531 127.324219 -21.445312 L 127.324219 -56.121094 C 127.324219 -58.300781 126.652344 -59.808594 125.3125 -61.148438 Z M 109.730469 -25.800781 C 109.730469 -24.625 109.398438 -23.789062 108.558594 -22.953125 L 103.199219 -17.925781 C 102.191406 -16.921875 101.523438 -16.585938 100.683594 -16.585938 L 21.445312 -16.585938 L 21.445312 -61.484375 L 100.519531 -61.484375 C 101.691406 -61.484375 102.527344 -61.148438 103.367188 -60.3125 L 108.390625 -54.949219 L 109.230469 -53.945312 C 109.566406 -53.441406 109.730469 -52.9375 109.730469 -52.269531 Z M 109.730469 -25.800781 "/></g></g></g><g fill="#ffffff" fill-opacity="1"><g transform="translate(503.047697, 307.120255)"><g><path d="M 26.746094 -17.949219 L 24.339844 -17.949219 C 24.050781 -17.949219 23.800781 -17.699219 23.800781 -17.410156 L 23.800781 -10.015625 C 23.800781 -9.765625 23.730469 -9.621094 23.550781 -9.40625 L 18.632812 -3.839844 L 18.417969 -3.660156 C 18.308594 -3.589844 18.199219 -3.554688 18.058594 -3.554688 L 10.304688 -3.554688 C 10.125 -3.554688 10.015625 -3.589844 9.945312 -3.660156 L 9.730469 -3.839844 L 4.808594 -9.40625 C 4.632812 -9.621094 4.558594 -9.765625 4.558594 -10.015625 L 4.558594 -17.410156 C 4.558594 -17.699219 4.308594 -17.949219 4.019531 -17.949219 L 1.617188 -17.949219 C 1.328125 -17.949219 1.078125 -17.699219 1.078125 -17.410156 L 1.078125 -8.902344 C 1.078125 -8.542969 1.21875 -8.257812 1.472656 -7.96875 L 8.222656 -0.429688 C 8.507812 -0.144531 8.832031 0 9.296875 0 L 19.0625 0 C 19.527344 0 19.851562 -0.144531 20.140625 -0.429688 L 26.886719 -7.96875 C 27.140625 -8.257812 27.285156 -8.542969 27.285156 -8.902344 L 27.285156 -17.410156 C 27.285156 -17.699219 27.03125 -17.949219 26.746094 -17.949219 Z M 26.746094 -17.949219 "/></g></g></g><g fill="#ffffff" fill-opacity="1"><g transform="translate(534.10053, 307.120255)"><g><path d="M 5.097656 -11.738281 L 6.246094 -12.816406 C 6.460938 -13.03125 6.605469 -13.101562 6.785156 -13.101562 L 26.746094 -13.101562 C 27.03125 -13.101562 27.285156 -13.355469 27.285156 -13.640625 L 27.285156 -16.117188 C 27.285156 -16.40625 27.03125 -16.65625 26.746094 -16.65625 L 5.78125 -16.65625 C 5.347656 -16.65625 5.0625 -16.550781 4.738281 -16.226562 L 1.507812 -12.996094 C 1.292969 -12.78125 1.078125 -12.421875 1.078125 -12.0625 L 1.078125 -4.632812 C 1.078125 -4.164062 1.21875 -3.839844 1.507812 -3.554688 L 4.738281 -0.394531 C 4.988281 -0.144531 5.3125 0 5.671875 0 L 26.746094 0 C 27.03125 0 27.285156 -0.25 27.285156 -0.539062 L 27.285156 -2.945312 C 27.285156 -3.230469 27.03125 -3.480469 26.746094 -3.480469 L 6.820312 -3.480469 C 6.570312 -3.480469 6.390625 -3.554688 6.210938 -3.734375 L 5.132812 -4.882812 L 4.953125 -5.097656 C 4.882812 -5.207031 4.847656 -5.3125 4.847656 -5.457031 L 4.847656 -5.996094 L 24.984375 -5.996094 C 25.273438 -5.996094 25.523438 -6.246094 25.523438 -6.535156 L 25.523438 -9.011719 C 25.523438 -9.296875 25.273438 -9.550781 24.984375 -9.550781 L 4.847656 -9.550781 L 4.847656 -11.128906 C 4.847656 -11.378906 4.917969 -11.558594 5.097656 -11.738281 Z M 5.097656 -11.738281 "/></g></g></g><g fill="#ffffff" fill-opacity="1"><g transform="translate(565.153362, 307.120255)"><g><path d="M 1.078125 -0.539062 C 1.078125 -0.25 1.328125 0 1.617188 0 L 4.019531 0 C 4.308594 0 4.558594 -0.25 4.558594 -0.539062 L 4.558594 -13.101562 L 20.570312 -13.101562 C 20.714844 -13.101562 20.820312 -13.066406 20.929688 -12.996094 L 23.550781 -10.484375 C 23.730469 -10.304688 23.800781 -10.125 23.800781 -9.871094 L 23.800781 -0.539062 C 23.800781 -0.25 24.050781 0 24.339844 0 L 26.746094 0 C 27.03125 0 27.285156 -0.25 27.285156 -0.539062 L 27.285156 -10.984375 C 27.285156 -11.34375 27.140625 -11.667969 26.886719 -11.917969 L 22.652344 -16.226562 C 22.367188 -16.511719 22.042969 -16.65625 21.574219 -16.65625 L 2.726562 -16.65625 C 1.796875 -16.65625 1.078125 -15.9375 1.078125 -15.007812 Z M 1.078125 -0.539062 "/></g></g></g><g fill="#ffffff" fill-opacity="1"><g transform="translate(596.206195, 307.120255)"><g><path d="M 1.617188 0 L 4.308594 0 C 4.59375 0 4.847656 -0.25 4.847656 -0.539062 L 4.847656 -16.117188 C 4.847656 -16.40625 4.59375 -16.65625 4.308594 -16.65625 L 1.617188 -16.65625 C 1.328125 -16.65625 1.078125 -16.40625 1.078125 -16.117188 L 1.078125 -0.539062 C 1.078125 -0.25 1.328125 0 1.617188 0 Z M 1.617188 0 "/></g></g></g><g fill="#ffffff" fill-opacity="1"><g transform="translate(604.822012, 307.120255)"><g/></g></g><g fill="#ffffff" fill-opacity="1"><g transform="translate(616.848247, 307.120255)"><g><path d="M 26.746094 -17.949219 L 24.339844 -17.949219 C 24.050781 -17.949219 23.800781 -17.699219 23.800781 -17.410156 L 23.800781 -10.015625 C 23.800781 -9.765625 23.730469 -9.621094 23.550781 -9.40625 L 18.632812 -3.839844 L 18.417969 -3.660156 C 18.308594 -3.589844 18.199219 -3.554688 18.058594 -3.554688 L 10.304688 -3.554688 C 10.125 -3.554688 10.015625 -3.589844 9.945312 -3.660156 L 9.730469 -3.839844 L 4.808594 -9.40625 C 4.632812 -9.621094 4.558594 -9.765625 4.558594 -10.015625 L 4.558594 -17.410156 C 4.558594 -17.699219 4.308594 -17.949219 4.019531 -17.949219 L 1.617188 -17.949219 C 1.328125 -17.949219 1.078125 -17.699219 1.078125 -17.410156 L 1.078125 -8.902344 C 1.078125 -8.542969 1.21875 -8.257812 1.472656 -7.96875 L 8.222656 -0.429688 C 8.507812 -0.144531 8.832031 0 9.296875 0 L 19.0625 0 C 19.527344 0 19.851562 -0.144531 20.140625 -0.429688 L 26.886719 -7.96875 C 27.140625 -8.257812 27.285156 -8.542969 27.285156 -8.902344 L 27.285156 -17.410156 C 27.285156 -17.699219 27.03125 -17.949219 26.746094 -17.949219 Z M 26.746094 -17.949219 "/></g></g></g><g fill="#ffffff" fill-opacity="1"><g transform="translate(647.901079, 307.120255)"><g><path d="M 1.617188 0 L 4.308594 0 C 4.59375 0 4.847656 -0.25 4.847656 -0.539062 L 4.847656 -16.117188 C 4.847656 -16.40625 4.59375 -16.65625 4.308594 -16.65625 L 1.617188 -16.65625 C 1.328125 -16.65625 1.078125 -16.40625 1.078125 -16.117188 L 1.078125 -0.539062 C 1.078125 -0.25 1.328125 0 1.617188 0 Z M 1.617188 0 "/></g></g></g><g fill="#ffffff" fill-opacity="1"><g transform="translate(656.516896, 307.120255)"><g><path d="M 26.851562 -13.101562 L 23.621094 -16.261719 C 23.371094 -16.511719 23.046875 -16.65625 22.6875 -16.65625 L 1.617188 -16.65625 C 1.328125 -16.65625 1.078125 -16.40625 1.078125 -16.117188 L 1.078125 -0.539062 C 1.078125 -0.25 1.328125 0 1.617188 0 L 22.582031 0 C 23.011719 0 23.296875 -0.109375 23.621094 -0.429688 L 26.851562 -3.660156 C 27.066406 -3.878906 27.285156 -4.234375 27.285156 -4.59375 L 27.285156 -12.027344 C 27.285156 -12.492188 27.140625 -12.816406 26.851562 -13.101562 Z M 23.515625 -5.527344 C 23.515625 -5.277344 23.441406 -5.097656 23.261719 -4.917969 L 22.113281 -3.839844 C 21.898438 -3.625 21.753906 -3.554688 21.574219 -3.554688 L 4.59375 -3.554688 L 4.59375 -13.175781 L 21.539062 -13.175781 C 21.789062 -13.175781 21.96875 -13.101562 22.148438 -12.921875 L 23.226562 -11.773438 L 23.40625 -11.558594 C 23.476562 -11.453125 23.515625 -11.34375 23.515625 -11.199219 Z M 23.515625 -5.527344 "/></g></g></g><g fill="#ffffff" fill-opacity="1"><g transform="translate(687.569729, 307.120255)"><g><path d="M 1.617188 0 L 4.308594 0 C 4.59375 0 4.847656 -0.25 4.847656 -0.539062 L 4.847656 -16.117188 C 4.847656 -16.40625 4.59375 -16.65625 4.308594 -16.65625 L 1.617188 -16.65625 C 1.328125 -16.65625 1.078125 -16.40625 1.078125 -16.117188 L 1.078125 -0.539062 C 1.078125 -0.25 1.328125 0 1.617188 0 Z M 1.617188 0 "/></g></g></g><g fill="#ffffff" fill-opacity="1"><g transform="translate(696.185546, 307.120255)"><g/></g></g><g fill="#ffffff" fill-opacity="1"><g transform="translate(708.211781, 307.120255)"><g><path d="M 26.886719 -14.289062 L 23.730469 -17.519531 C 23.441406 -17.804688 23.117188 -17.949219 22.652344 -17.949219 L 5.707031 -17.949219 C 5.242188 -17.949219 4.917969 -17.804688 4.632812 -17.519531 L 1.472656 -14.289062 C 1.21875 -14.035156 1.078125 -13.714844 1.078125 -13.355469 L 1.078125 -0.539062 C 1.078125 -0.25 1.328125 0 1.617188 0 L 4.019531 0 C 4.308594 0 4.558594 -0.25 4.558594 -0.539062 L 4.558594 -5.886719 L 23.800781 -5.886719 L 23.800781 -0.539062 C 23.800781 -0.25 24.050781 0 24.339844 0 L 26.746094 0 C 27.03125 0 27.285156 -0.25 27.285156 -0.539062 L 27.285156 -13.355469 C 27.285156 -13.714844 27.140625 -14.035156 26.886719 -14.289062 Z M 4.558594 -9.011719 L 4.558594 -12.421875 C 4.558594 -12.671875 4.632812 -12.851562 4.808594 -13.03125 L 5.960938 -14.109375 L 6.175781 -14.289062 C 6.246094 -14.359375 6.355469 -14.394531 6.535156 -14.394531 L 21.828125 -14.394531 C 21.96875 -14.394531 22.078125 -14.359375 22.1875 -14.289062 L 22.402344 -14.109375 L 23.550781 -13.03125 C 23.730469 -12.851562 23.800781 -12.671875 23.800781 -12.421875 L 23.800781 -9.011719 Z M 4.558594 -9.011719 "/></g></g></g><g fill="#ffffff" fill-opacity="1"><g transform="translate(739.264613, 307.120255)"><g><path d="M 26.851562 -13.101562 L 23.621094 -16.261719 C 23.371094 -16.511719 23.046875 -16.65625 22.6875 -16.65625 L 1.617188 -16.65625 C 1.328125 -16.65625 1.078125 -16.40625 1.078125 -16.117188 L 1.078125 -0.539062 C 1.078125 -0.25 1.328125 0 1.617188 0 L 22.582031 0 C 23.011719 0 23.296875 -0.109375 23.621094 -0.429688 L 26.851562 -3.660156 C 27.066406 -3.878906 27.285156 -4.234375 27.285156 -4.59375 L 27.285156 -12.027344 C 27.285156 -12.492188 27.140625 -12.816406 26.851562 -13.101562 Z M 23.515625 -5.527344 C 23.515625 -5.277344 23.441406 -5.097656 23.261719 -4.917969 L 22.113281 -3.839844 C 21.898438 -3.625 21.753906 -3.554688 21.574219 -3.554688 L 4.59375 -3.554688 L 4.59375 -13.175781 L 21.539062 -13.175781 C 21.789062 -13.175781 21.96875 -13.101562 22.148438 -12.921875 L 23.226562 -11.773438 L 23.40625 -11.558594 C 23.476562 -11.453125 23.515625 -11.34375 23.515625 -11.199219 Z M 23.515625 -5.527344 "/></g></g></g><g fill="#ffffff" fill-opacity="1"><g transform="translate(770.317446, 307.120255)"><g><path d="M 51.515625 -11.917969 L 47.28125 -16.226562 C 47.027344 -16.511719 46.667969 -16.65625 46.203125 -16.65625 L 31.160156 -16.65625 C 30.695312 -16.65625 30.335938 -16.511719 30.082031 -16.226562 L 27.210938 -13.320312 L 24.339844 -16.226562 C 24.089844 -16.511719 23.730469 -16.65625 23.261719 -16.65625 L 6.785156 -16.65625 C 6.316406 -16.65625 5.960938 -16.511719 5.707031 -16.226562 L 1.472656 -11.917969 C 1.21875 -11.667969 1.078125 -11.34375 1.078125 -10.984375 L 1.078125 -0.539062 C 1.078125 -0.25 1.328125 0 1.617188 0 L 4.019531 0 C 4.308594 0 4.558594 -0.25 4.558594 -0.539062 L 4.558594 -9.945312 C 4.558594 -10.195312 4.632812 -10.410156 4.808594 -10.554688 L 7.359375 -12.996094 C 7.46875 -13.066406 7.574219 -13.101562 7.71875 -13.101562 L 22.4375 -13.101562 C 22.582031 -13.101562 22.6875 -13.066406 22.796875 -12.996094 L 25.238281 -10.660156 C 25.34375 -10.589844 25.417969 -10.445312 25.453125 -10.339844 L 25.453125 -0.539062 C 25.453125 -0.25 25.703125 0 25.992188 0 L 28.433594 0 C 28.71875 0 28.96875 -0.25 28.96875 -0.539062 L 28.96875 -10.339844 C 29.007812 -10.445312 29.078125 -10.589844 29.1875 -10.660156 L 31.628906 -12.996094 C 31.734375 -13.066406 31.84375 -13.101562 31.984375 -13.101562 L 45.269531 -13.101562 C 45.414062 -13.101562 45.519531 -13.066406 45.628906 -12.996094 L 48.175781 -10.554688 C 48.355469 -10.410156 48.429688 -10.195312 48.429688 -9.945312 L 48.429688 -0.539062 C 48.429688 -0.25 48.679688 0 48.964844 0 L 51.371094 0 C 51.660156 0 51.910156 -0.25 51.910156 -0.539062 L 51.910156 -10.984375 C 51.910156 -11.34375 51.765625 -11.667969 51.515625 -11.917969 Z M 51.515625 -11.917969 "/></g></g></g><g fill="#ffffff" fill-opacity="1"><g transform="translate(825.997131, 307.120255)"><g><path d="M 1.617188 0 L 4.308594 0 C 4.59375 0 4.847656 -0.25 4.847656 -0.539062 L 4.847656 -16.117188 C 4.847656 -16.40625 4.59375 -16.65625 4.308594 -16.65625 L 1.617188 -16.65625 C 1.328125 -16.65625 1.078125 -16.40625 1.078125 -16.117188 L 1.078125 -0.539062 C 1.078125 -0.25 1.328125 0 1.617188 0 Z M 1.617188 0 "/></g></g></g><g fill="#ffffff" fill-opacity="1"><g transform="translate(834.61293, 307.120255)"><g><path d="M 1.078125 -0.539062 C 1.078125 -0.25 1.328125 0 1.617188 0 L 4.019531 0 C 4.308594 0 4.558594 -0.25 4.558594 -0.539062 L 4.558594 -13.101562 L 20.570312 -13.101562 C 20.714844 -13.101562 20.820312 -13.066406 20.929688 -12.996094 L 23.550781 -10.484375 C 23.730469 -10.304688 23.800781 -10.125 23.800781 -9.871094 L 23.800781 -0.539062 C 23.800781 -0.25 24.050781 0 24.339844 0 L 26.746094 0 C 27.03125 0 27.285156 -0.25 27.285156 -0.539062 L 27.285156 -10.984375 C 27.285156 -11.34375 27.140625 -11.667969 26.886719 -11.917969 L 22.652344 -16.226562 C 22.367188 -16.511719 22.042969 -16.65625 21.574219 -16.65625 L 2.726562 -16.65625 C 1.796875 -16.65625 1.078125 -15.9375 1.078125 -15.007812 Z M 1.078125 -0.539062 "/></g></g></g><g fill="#ffffff" fill-opacity="1"><g transform="translate(865.665762, 307.120255)"><g><path d="M 1.617188 0 L 4.308594 0 C 4.59375 0 4.847656 -0.25 4.847656 -0.539062 L 4.847656 -16.117188 C 4.847656 -16.40625 4.59375 -16.65625 4.308594 -16.65625 L 1.617188 -16.65625 C 1.328125 -16.65625 1.078125 -16.40625 1.078125 -16.117188 L 1.078125 -0.539062 C 1.078125 -0.25 1.328125 0 1.617188 0 Z M 1.617188 0 "/></g></g></g><g fill="#ffffff" fill-opacity="1"><g transform="translate(874.281561, 307.120255)"><g><path d="M 1.078125 -10.375 C 1.078125 -9.90625 1.21875 -9.585938 1.507812 -9.296875 L 4.019531 -6.855469 C 4.273438 -6.640625 4.59375 -6.460938 4.953125 -6.460938 L 22.257812 -6.460938 C 22.507812 -6.460938 22.6875 -6.390625 22.867188 -6.210938 L 23.40625 -5.5625 C 23.476562 -5.457031 23.515625 -5.347656 23.515625 -5.207031 L 23.515625 -4.808594 C 23.515625 -4.558594 23.441406 -4.378906 23.261719 -4.199219 L 22.832031 -3.839844 C 22.617188 -3.660156 22.472656 -3.554688 22.292969 -3.554688 L 2.226562 -3.554688 C 1.9375 -3.554688 1.6875 -3.300781 1.6875 -3.015625 L 1.6875 -0.539062 C 1.6875 -0.25 1.9375 0 2.226562 0 L 23.296875 0 C 23.730469 0 24.015625 -0.109375 24.339844 -0.429688 L 26.851562 -2.945312 C 27.066406 -3.160156 27.285156 -3.519531 27.285156 -3.878906 L 27.285156 -6.390625 C 27.285156 -6.855469 27.140625 -7.214844 26.851562 -7.46875 L 24.699219 -9.550781 C 24.449219 -9.765625 24.125 -9.945312 23.765625 -9.945312 L 6.101562 -9.945312 C 5.851562 -9.945312 5.671875 -10.015625 5.492188 -10.195312 L 4.953125 -10.839844 C 4.882812 -10.949219 4.847656 -11.058594 4.847656 -11.199219 L 4.847656 -11.488281 C 4.847656 -11.738281 4.917969 -11.917969 5.097656 -12.097656 L 5.886719 -12.816406 C 6.101562 -12.996094 6.246094 -13.101562 6.425781 -13.101562 L 25.777344 -13.101562 C 26.0625 -13.101562 26.3125 -13.355469 26.3125 -13.640625 L 26.3125 -16.117188 C 26.3125 -16.40625 26.0625 -16.65625 25.777344 -16.65625 L 5.421875 -16.65625 C 4.988281 -16.65625 4.703125 -16.550781 4.378906 -16.226562 L 1.507812 -13.355469 C 1.292969 -13.140625 1.078125 -12.78125 1.078125 -12.421875 Z M 1.078125 -10.375 "/></g></g></g><g fill="#ffffff" fill-opacity="1"><g transform="translate(905.334393, 307.120255)"><g><path d="M 26.746094 -16.65625 L 1.617188 -16.65625 C 1.328125 -16.65625 1.078125 -16.40625 1.078125 -16.117188 L 1.078125 -13.425781 C 1.078125 -13.140625 1.328125 -12.886719 1.617188 -12.886719 L 12.3125 -12.886719 L 12.3125 -0.539062 C 12.3125 -0.25 12.566406 0 12.851562 0 L 15.542969 0 C 15.832031 0 16.082031 -0.25 16.082031 -0.539062 L 16.082031 -12.886719 L 26.746094 -12.886719 C 27.03125 -12.886719 27.285156 -13.140625 27.285156 -13.425781 L 27.285156 -16.117188 C 27.285156 -16.40625 27.03125 -16.65625 26.746094 -16.65625 Z M 26.746094 -16.65625 "/></g></g></g><g fill="#ffffff" fill-opacity="1"><g transform="translate(936.387226, 307.120255)"><g><path d="M 27.285156 -8.542969 L 27.285156 -12.027344 C 27.285156 -12.492188 27.140625 -12.816406 26.851562 -13.101562 L 23.621094 -16.261719 C 23.371094 -16.511719 23.046875 -16.65625 22.6875 -16.65625 L 1.617188 -16.65625 C 1.328125 -16.65625 1.078125 -16.40625 1.078125 -16.117188 L 1.078125 -0.539062 C 1.078125 -0.25 1.328125 0 1.617188 0 L 4.09375 0 C 4.378906 0 4.632812 -0.25 4.632812 -0.539062 L 4.632812 -3.949219 L 21 -3.949219 L 23.226562 -0.324219 C 23.371094 -0.109375 23.550781 0 23.765625 0 L 26.457031 0 C 26.886719 0 27.105469 -0.394531 26.886719 -0.753906 L 24.230469 -4.988281 L 26.851562 -7.609375 C 27.066406 -7.824219 27.285156 -8.183594 27.285156 -8.542969 Z M 4.632812 -13.175781 L 21.539062 -13.175781 C 21.789062 -13.175781 21.96875 -13.101562 22.148438 -12.921875 L 23.226562 -11.773438 L 23.40625 -11.558594 C 23.476562 -11.453125 23.515625 -11.34375 23.515625 -11.199219 L 23.515625 -9.476562 C 23.515625 -9.226562 23.441406 -9.046875 23.261719 -8.867188 L 22.113281 -7.789062 C 21.898438 -7.574219 21.753906 -7.503906 21.574219 -7.503906 L 4.632812 -7.503906 Z M 4.632812 -13.175781 "/></g></g></g><g fill="#ffffff" fill-opacity="1"><g transform="translate(967.440058, 307.120255)"><g><path d="M 26.886719 -12.996094 L 23.730469 -16.226562 C 23.441406 -16.511719 23.117188 -16.65625 22.652344 -16.65625 L 5.707031 -16.65625 C 5.242188 -16.65625 4.917969 -16.511719 4.632812 -16.226562 L 1.472656 -12.996094 C 1.21875 -12.746094 1.078125 -12.421875 1.078125 -12.0625 L 1.078125 -0.539062 C 1.078125 -0.25 1.328125 0 1.617188 0 L 4.019531 0 C 4.308594 0 4.558594 -0.25 4.558594 -0.539062 L 4.558594 -4.09375 L 23.800781 -4.09375 L 23.800781 -0.539062 C 23.800781 -0.25 24.050781 0 24.339844 0 L 26.746094 0 C 27.03125 0 27.285156 -0.25 27.285156 -0.539062 L 27.285156 -12.0625 C 27.285156 -12.421875 27.140625 -12.746094 26.886719 -12.996094 Z M 4.558594 -7.214844 L 4.558594 -11.128906 C 4.558594 -11.378906 4.632812 -11.558594 4.808594 -11.738281 L 5.960938 -12.816406 L 6.175781 -12.996094 C 6.246094 -13.066406 6.355469 -13.101562 6.535156 -13.101562 L 21.828125 -13.101562 C 21.96875 -13.101562 22.078125 -13.066406 22.1875 -12.996094 L 22.402344 -12.816406 L 23.550781 -11.738281 C 23.730469 -11.558594 23.800781 -11.378906 23.800781 -11.128906 L 23.800781 -7.214844 Z M 4.558594 -7.214844 "/></g></g></g><g fill="#ffffff" fill-opacity="1"><g transform="translate(998.49289, 307.120255)"><g><path d="M 26.746094 -16.65625 L 24.339844 -16.65625 C 24.050781 -16.65625 23.800781 -16.40625 23.800781 -16.117188 L 23.800781 -10.015625 C 23.800781 -9.765625 23.730469 -9.621094 23.550781 -9.40625 L 18.632812 -3.839844 L 18.417969 -3.660156 C 18.308594 -3.589844 18.199219 -3.554688 18.058594 -3.554688 L 10.304688 -3.554688 C 10.125 -3.554688 10.015625 -3.589844 9.945312 -3.660156 L 9.730469 -3.839844 L 4.808594 -9.40625 C 4.632812 -9.621094 4.558594 -9.765625 4.558594 -10.015625 L 4.558594 -16.117188 C 4.558594 -16.40625 4.308594 -16.65625 4.019531 -16.65625 L 1.617188 -16.65625 C 1.328125 -16.65625 1.078125 -16.40625 1.078125 -16.117188 L 1.078125 -8.902344 C 1.078125 -8.542969 1.21875 -8.257812 1.472656 -7.96875 L 8.222656 -0.429688 C 8.507812 -0.144531 8.832031 0 9.296875 0 L 19.0625 0 C 19.527344 0 19.851562 -0.144531 20.140625 -0.429688 L 26.886719 -7.96875 C 27.140625 -8.257812 27.285156 -8.542969 27.285156 -8.902344 L 27.285156 -16.117188 C 27.285156 -16.40625 27.03125 -16.65625 26.746094 -16.65625 Z M 26.746094 -16.65625 "/></g></g></g><g fill="#ffffff" fill-opacity="1"><g transform="translate(1029.545723, 307.120255)"><g><path d="M 1.617188 0 L 4.308594 0 C 4.59375 0 4.847656 -0.25 4.847656 -0.539062 L 4.847656 -16.117188 C 4.847656 -16.40625 4.59375 -16.65625 4.308594 -16.65625 L 1.617188 -16.65625 C 1.328125 -16.65625 1.078125 -16.40625 1.078125 -16.117188 L 1.078125 -0.539062 C 1.078125 -0.25 1.328125 0 1.617188 0 Z M 1.617188 0 "/></g></g></g></svg>